<?xml version="1.0" encoding="utf-8"?>
<svg version="1.1" xmlns="http://www.w3.org/2000/svg" xmlns:xlink="http://www.w3.org/1999/xlink" viewBox="0 0 83.2 56.5">
	<g id="letter" class="svg-stroke">
		<path d="M1.1,4.1C1.2,7.6,1.8,15.8,2,22c0.1,2.9,0.1,5.9-0.2,8.8c-0.2,2.1,0.1,4.1,0,6.1c-0.1,3.7-0.3,2.8-0.4,6.5
			l-0.2,8.7c0,3.1-0.5,2.9,2.6,2.8c1.3,0,4.6-0.2,5.9-0.2c20.5,0.3,36,1.2,53.9,0.4c4.1-0.2,9.6,0.2,14.4,0.1c5.2,0.1,4.2,1.3,3.9-7.9
			c0.2-9.2-0.6-14.3-1.1-23.5c-0.4-7.3,0.8-18.1,0.9-20.7c0.1-2.2,0.4-2-1.9-2l-5.2,0.1C56.7,1.7,41.5,2,23.5,1.8L11.8,1.5
			C9.8,1.4,6,1.1,3.5,1.1C0.5,1,1,0.4,1.1,4.1z"/>
		<path d="M73.2,10.6c2.7-2.3,5.7-4.1,8.2-6.6"/>
		<path d="M73.2,10.6c-5.5,4.4-11.6,9-12.4,9.7c-6.4,5-12.3,10.6-19,15.5c-2.2-1.5-4.4-3.1-6.7-4.6
			c-4.9-3.2-9.2-7.3-14.2-10.3C19.6,20.2,1.1,7.8,1.1,4.7"/>
	</g>
</svg>
