<?xml version="1.0" encoding="utf-8"?>
<svg version="1.1" xmlns="http://www.w3.org/2000/svg" xmlns:xlink="http://www.w3.org/1999/xlink" viewBox="0 0 75.2 93.9">
	<g id="package" class="svg-stroke">
		<path d="M0.7,93.2c-0.2-0.3-0.4-0.7-0.5-1.1l0,0C0.1,91.3,0,90.4,0,89.2l0,0C0,84,1.3,75.1,1.5,71.5l0,0
			c0.3-5.2,2-19.6,2.3-24.7l0,0c0.3-5.2,1.4-15.9,1.4-15.9l0,0c0-0.3,0.2-0.5,0.3-0.7l0,0c0,0,1-0.8,2.1-2l0,0
			c1.1-1.2,2.3-2.7,2.8-3.9l0,0c0.7-1.8,2.8-4,4.7-6l0,0c1.9-2,3.6-3.6,3.6-3.6l0,0c0.2-0.2,0.5-0.3,0.8-0.3l0,0
			c0,0,13.8,1.1,19.5,1.1l0,0c5.8,0,22.2,0,22.2,0l0,0c0.3,0,0.6,0.2,0.8,0.4l0,0c0,0,2,2.9,2.9,4.4l0,0c0.3,0.6,2.2,3,4,5.2l0,0
			c1.8,2.2,3.4,4.2,3.4,4.2l0,0c0.1,0.1,0.2,0.3,0.2,0.5l0,0c0,0,1.7,11.7,1.7,15.4l0,0c0,1.7,0.2,13.4,0.4,24.7l0,0
			c0.2,11.3,0.4,22.1,0.4,22.2l0,0c0,0.3-0.1,0.5-0.3,0.7l0,0c-0.2,0.2-0.5,0.3-0.7,0.3l0,0c0,0-27.6-0.6-35.7-0.9l0,0
			c-0.7,0-1.6,0-2.6,0l0,0c-10,0-31.7,1.2-33.9,1.2l0,0c0,0,0,0,0,0l0,0C1.4,93.9,0.9,93.5,0.7,93.2L0.7,93.2z M5.8,46.9
			c-0.3,5.2-2,19.6-2.3,24.7l0,0C3.3,75.4,2,84.3,2,89.2l0,0c0,1.2,0.1,2.3,0.2,2.7l0,0c3.3-0.1,24-1.2,33.6-1.2l0,0c1,0,1.9,0,2.6,0
			l0,0c4,0.1,12.9,0.4,20.9,0.5l0,0c6.1,0.1,11.5,0.3,13.8,0.3l0,0c-0.1-6.7-0.8-42.7-0.8-45.9l0,0c0-1.6-0.4-5.4-0.9-8.8l0,0
			c-0.4-2.8-0.7-5.2-0.8-6l0,0c-0.5-0.6-1.8-2.2-3.2-4l0,0c-1.8-2.2-3.6-4.5-4.1-5.4l0,0c-0.6-1-1.9-3-2.5-3.8l0,0
			c-2.9,0-16.5,0-21.6,0l0,0c-5.2,0-16.8-0.9-19.2-1.1l0,0c-0.6,0.5-1.9,1.8-3.2,3.2l0,0c-1.8,1.9-3.8,4.3-4.2,5.4l0,0
			c-1.1,2.8-4.2,5.6-5.2,6.4l0,0C7,33.5,6.1,42.4,5.8,46.9L5.8,46.9z M19.4,16.5l0.1-1L19.4,16.5L19.4,16.5z"/>
		<path d="M5.3,31.3c-0.2-0.5,0.1-1.1,0.6-1.3l0,0C6.1,30,6.2,30,6.3,30l0,0c0.5,0,30.6,0,40.8-0.3l0,0
			c10.4-0.3,24.5-0.3,24.5-0.3l0,0c0.6,0,1,0.5,1,1l0,0c0,0.6-0.5,1-1,1l0,0c0,0-14.1,0-24.4,0.3l0,0C37,32,7.7,32,6.3,32l0,0
			c0,0,0,0,0,0l0,0C5.9,32,5.5,31.8,5.3,31.3L5.3,31.3z"/>
		<path d="M37.5,91.7c0,0,0-46.3,0-52.4l0,0c0-6-0.8-9.5-0.9-11.5l0,0c0-1.6-0.3-6-0.3-6l0,0l0-0.2l0.6-4.3
			c0.1-0.6,0.6-0.9,1.1-0.9l0,0c0.6,0.1,0.9,0.6,0.9,1.1l0,0l-0.6,4.2c0,0.7,0.3,4.4,0.3,6l0,0c0,1.5,0.9,5.4,0.9,11.5l0,0
			c0,6,0,52.4,0,52.4l0,0c0,0.6-0.5,1-1,1l0,0C37.9,92.8,37.5,92.3,37.5,91.7L37.5,91.7z"/>
		<path d="M38.5,23.7c-3.4-0.1-9.2-0.1-14.5-0.1l0,0c-5.3,0-9.7,0-11-0.2l0,0c-0.6-0.1-0.9-0.6-0.9-1.1l0,0
			c0.1-0.6,0.6-0.9,1.1-0.9l0,0c0.8,0.1,5.5,0.1,10.7,0.1l0,0c5.2,0,11,0,14.5,0.1l0,0c1.4,0.1,2.9,0.1,4.5,0.1l0,0
			c6.5,0,14-0.4,15.3-0.4l0,0c1.4,0,5.7-0.3,5.7-0.3l0,0c0.6,0,1,0.4,1.1,0.9l0,0c0,0.6-0.4,1-0.9,1.1l0,0c0,0-4.3,0.3-5.8,0.3l0,0
			c-1.1,0-8.7,0.4-15.3,0.4l0,0C41.4,23.8,39.9,23.8,38.5,23.7L38.5,23.7z"/>
	</g>
</svg>
