<?xml version="1.0" encoding="utf-8"?>
<svg version="1.1" xmlns="http://www.w3.org/2000/svg" xmlns:xlink="http://www.w3.org/1999/xlink" viewBox="0 0 34.3 23.2">
	<g id="package-loop" class="svg-stroke">
		<path d="M15.2,22.5c-0.3-0.4-0.3-0.9,0-1.3l0,0c0,0,1-1.1,2.2-2.7l0,0c1.2-1.6,2.6-3.7,3.4-5.6l0,0
			c0.8-1.7,1.4-4.8,2.7-7.6l0,0C24.8,2.5,27.1,0,30.9,0l0,0c0.4,0,0.9,0,1.4,0.1l0,0v0c0.7,0.1,1.3,0.5,1.7,1.1l0,0
			c0.3,0.6,0.4,1.2,0.4,1.8l0,0c0,1.6-0.6,3.7-1.2,6.2l0,0c-0.4,1.5-1.7,2.8-3.3,4.3l0,0c-1.6,1.5-3.6,3-5.6,4.3l0,0
			c-3.9,2.7-7.7,4.9-7.7,4.9l0,0c-0.2,0.1-0.3,0.1-0.5,0.1l0,0C15.7,22.8,15.4,22.7,15.2,22.5L15.2,22.5z M25.4,6.1
			c-1.2,2.4-1.8,5.4-2.7,7.5l0,0c-0.7,1.5-1.6,3.1-2.6,4.5l0,0c0,0,0.1-0.1,0.1-0.1l0,0c2.7-1.7,5.9-4,8.2-6l0,0
			c1.5-1.3,2.6-2.7,2.7-3.4l0,0c0.7-2.4,1.2-4.5,1.2-5.6l0,0c0-0.4-0.1-0.7-0.1-0.8l0,0c-0.1-0.1,0-0.1-0.2-0.1l0,0l0.1-1l-0.1,1
			C31.6,2,31.2,2,30.9,2l0,0C28.1,2,26.6,3.7,25.4,6.1L25.4,6.1z" />
		<path d="M7.7,21c-2.2-1.4-4.1-3.6-5.5-6l0,0C0.9,12.6,0,10.2,0,8.2l0,0C0,7.1,0.3,6,1.4,5.4l0,0h0
			C2,5.1,2.6,4.9,3.2,4.9l0,0C5,5,6.5,6.2,8.8,8.1l0,0c1.8,1.5,3.7,4.8,5.3,7.8l0,0c1.6,2.9,2.7,5.6,2.7,5.6l0,0c0.2,0.5,0,1-0.4,1.3
			l0,0c-0.1,0.1-0.9,0.5-2.3,0.5l0,0c0,0,0,0,0,0l0,0C12.7,23.2,10.5,22.7,7.7,21L7.7,21z M2.3,7.2C2.2,7.2,2,7.4,2,8.2l0,0
			c0,1.3,0.7,3.6,2,5.7l0,0c1.2,2.1,3,4.2,4.8,5.3l0,0c2.6,1.6,4.4,1.9,5.5,1.9l0,0c0.1,0,0.2,0,0.3,0l0,0c-0.5-1-1.2-2.6-2.2-4.3l0,0
			c-1.5-2.9-3.5-6.1-4.8-7.1l0,0C5.2,7.7,3.9,6.9,3.2,7l0,0C2.9,7,2.7,7,2.3,7.2L2.3,7.2L1.9,6.3L2.3,7.2L2.3,7.2z"/>
	</g>
</svg>
